<svg aria-hidden="true" style="position: absolute; width: 0; height: 0; overflow: hidden;" version="1.1" xmlns="http://www.w3.org/2000/svg" xmlns:xlink="http://www.w3.org/1999/xlink">
<defs>
<symbol id="icon-DFBGDBSGBDBV" viewBox="0 0 307 32">
<path d="M0 32v-31.467h1.6v31.467h-1.6zM3.2 32v-31.467h1.6v31.467h-1.6zM6.4 32v-31.467h4.8v31.467h-4.8zM16 32v-31.467h1.6v31.467h-1.6zM19.2 32v-31.467h4.8v31.467h-4.8zM25.625 32v-31.467h1.6v31.467h-1.6zM28.825 32v-31.467h4.8v31.467h-4.8zM35.225 32v-31.467h4.8v31.467h-4.8zM44.825 32v-31.467h1.6v31.467h-1.6zM48.025 32v-31.467h1.6v31.467h-1.6zM51.25 32v-31.467h1.6v31.467h-1.6zM54.45 32v-31.467h4.8v31.467h-4.8zM60.85 32v-31.467h1.6v31.467h-1.6zM67.25 32v-31.467h1.6v31.467h-1.6zM70.45 32v-31.467h4.8v31.467h-4.8zM76.875 32v-31.467h1.6v31.467h-1.6zM80.075 32v-31.467h1.6v31.467h-1.6zM83.275 32v-31.467h1.6v31.467h-1.6zM89.675 32v-31.467h4.8v31.467h-4.8zM96.075 32v-31.467h4.8v31.467h-4.8zM102.5 32v-31.467h1.6v31.467h-1.6zM105.7 32v-31.467h1.6v31.467h-1.6zM108.9 32v-31.467h4.8v31.467h-4.8zM118.5 32v-31.467h1.6v31.467h-1.6zM121.7 32v-31.467h4.8v31.467h-4.8zM128.125 32v-31.467h1.6v31.467h-1.6zM131.325 32v-31.467h4.8v31.467h-4.8zM137.725 32v-31.467h1.6v31.467h-1.6zM144.125 32v-31.467h1.6v31.467h-1.6zM147.325 32v-31.467h4.8v31.467h-4.8zM153.749 32v-31.467h1.601v31.467h-1.601zM156.951 32v-31.467h4.8v31.467h-4.8zM163.351 32v-31.467h1.6v31.467h-1.6zM166.551 32v-31.467h4.8v31.467h-4.8zM176.151 32v-31.467h1.6v31.467h-1.6zM179.375 32v-31.467h1.6v31.467h-1.6zM182.575 32v-31.467h1.6v31.467h-1.6zM185.775 32v-31.467h1.6v31.467h-1.6zM192.175 32v-31.467h4.8v31.467h-4.8zM198.575 32v-31.467h4.8v31.467h-4.8zM205 32v-31.467h1.6v31.467h-1.6zM208.2 32v-31.467h4.8v31.467h-4.8zM214.6 32v-31.467h1.6v31.467h-1.6zM221 32v-31.467h1.6v31.467h-1.6zM224.2 32v-31.467h4.8v31.467h-4.8zM230.625 32v-31.467h1.6v31.467h-1.6zM233.825 32v-31.467h1.6v31.467h-1.6zM237.025 32v-31.467h4.8v31.467h-4.8zM246.625 32v-31.467h1.6v31.467h-1.6zM249.825 32v-31.467h4.8v31.467h-4.8zM256.251 32v-31.467h1.6v31.467h-1.6zM259.451 32v-31.467h4.8v31.467h-4.8zM265.851 32v-31.467h1.6v31.467h-1.6zM272.251 32v-31.467h1.6v31.467h-1.6zM275.451 32v-31.467h4.8v31.467h-4.8zM281.875 32v-31.467h1.6v31.467h-1.6zM288.275 32v-31.467h4.8v31.467h-4.8zM294.675 32v-31.467h1.6v31.467h-1.6zM297.875 32v-31.467h1.6v31.467h-1.6zM301.075 32v-31.467h4.8v31.467h-4.8z"></path>
</symbol>
</defs>
</svg>
